<svg width="493" height="597" viewBox="0 0 493 597" fill="none" xmlns="http://www.w3.org/2000/svg">
<g clip-path="url(#clip0_414_6)">
<path d="M94.2686 234.126C93.6992 233.235 90.1107 227.624 87.4521 228.192C82.4124 229.27 85.1462 251.6 77.8197 253.827C76.2118 254.316 73.9486 253.889 68.8938 255.241C66.8828 255.778 65.8403 256.221 65.5166 257.111C65.0573 258.374 66.4464 259.436 68.5094 262.514C71.603 267.131 70.6519 267.986 73.3725 271.295C75.3922 273.751 76.9772 274.571 76.6665 275.649C76.2269 277.174 72.7691 276.518 71.9385 278.267C71.0911 280.052 73.5515 283.136 75.6795 285.021C79.6727 288.56 83.6523 288.901 87.2967 290.061C91.2573 291.322 96.6738 294.138 102.281 301.179L147.09 361.833C143.476 360.463 136.435 357.65 126.831 352.839C118.73 348.779 110.698 344.159 102.959 339.101C99.6214 336.92 96.7048 334.891 94.0847 333.001L94.3506 333.14L93.0707 328.508C92.5796 326.667 92.2578 325.163 92.9391 323.954C93.3149 323.307 94.0242 322.64 94.8505 321.866C95.7981 320.982 96.8742 319.98 97.9222 318.589C98.8938 317.338 99.1149 316.222 98.6296 315.287C98.4651 314.969 98.2488 314.743 98.0207 314.577C98.2813 314.165 98.578 313.677 98.842 313.092C99.4012 311.848 99.5382 310.783 99.637 309.991C100.043 306.804 99.5271 304.927 98.0975 304.409C97.4932 304.191 96.9476 304.291 96.491 304.505C96.457 303.852 96.37 303.083 96.1317 302.254C95.3649 299.593 94.2976 298.244 92.8772 298.132C90.8924 297.975 89.8913 300.169 88.7344 302.703C88.2157 303.829 86.855 306.829 86.1444 306.831C86.0565 306.83 85.8058 306.777 85.5836 306.728C84.9748 306.595 84.0569 306.396 82.6239 306.356C81.8207 306.333 80.6076 306.298 79.8657 307.293C79.2046 308.247 79.5307 309.26 79.8309 310.071C79.9304 310.338 80.0494 310.656 80.1686 311.041C80.4409 311.919 80.4864 312.393 80.5311 312.852C80.589 313.449 80.6491 314.069 81.077 315.089C81.1132 315.172 81.1462 315.249 81.18 315.325C80.7779 315.417 80.3563 315.611 80.0022 316.005C78.6695 317.455 79.9127 319.857 80.5047 320.812C81.5693 322.523 82.9181 323.344 84.003 324.005C84.2767 324.172 84.5455 324.335 84.8053 324.512C86.1512 325.429 87.2676 326.818 88.1621 328.605C87.104 327.799 86.0923 327.023 85.1427 326.292C81.7414 323.675 78.5435 321.125 75.4259 318.639C72.2202 316.082 69.081 313.58 65.8875 311.139L66.0888 310.261L65.3173 310.709C60.2814 306.879 55.0947 303.201 49.2714 299.711C49.0327 299.568 48.7503 299.4 48.4592 299.23L48.182 298.226C47.6909 296.385 47.3692 294.882 48.0504 293.673C48.4263 293.026 49.1356 292.358 49.9619 291.585C50.9094 290.701 51.9855 289.699 53.0336 288.308C54.0052 287.057 54.2264 285.941 53.741 285.006C53.5765 284.688 53.3602 284.462 53.1322 284.296C53.3927 283.883 53.6895 283.396 53.9534 282.81C54.5126 281.566 54.6496 280.502 54.7484 279.709C55.1545 276.523 54.6384 274.646 53.2088 274.128C52.6046 273.91 52.059 274.009 51.6023 274.224C51.5684 273.57 51.4814 272.801 51.2431 271.973C50.4762 269.311 49.409 267.962 47.9886 267.851C46.0038 267.694 45.0026 269.887 43.8457 272.422C43.3271 273.548 41.9663 276.547 41.2558 276.55C41.1678 276.549 40.9171 276.495 40.695 276.446C40.0863 276.314 39.1682 276.115 37.7353 276.074C36.932 276.052 35.7191 276.017 34.977 277.012C34.3159 277.965 34.642 278.979 34.9424 279.789C35.0419 280.057 35.1607 280.374 35.2801 280.76C35.5523 281.638 35.5977 282.111 35.6425 282.57C35.7003 283.167 35.7604 283.787 36.1884 284.808C36.2246 284.891 36.2577 284.968 36.2914 285.044C35.8892 285.136 35.4677 285.33 35.1135 285.723C33.7809 287.174 35.0241 289.575 35.6161 290.531C36.6807 292.241 38.0295 293.063 39.1144 293.724C39.3881 293.891 39.6569 294.054 39.9166 294.231C40.6775 294.749 41.3618 295.425 41.9811 296.225C40.0057 295.558 37.7249 295.01 35.153 294.774C32.0793 294.493 28.9652 294.7 25.8611 295.377C25.8393 295.143 25.818 294.913 25.7941 294.658C25.5303 291.803 25.3372 290.619 24.3532 289.508C23.8755 288.966 23.1438 288.37 21.0519 287.689C18.1524 286.745 15.6689 286.602 14.9749 286.58C11.5086 286.481 8.51468 286.397 5.79651 288.487C5.27786 288.884 3.70278 290.084 2.83821 292.201C2.39565 293.272 2.31585 294.141 2.2518 294.84C2.18422 295.571 2.14165 296.054 1.73139 296.73C1.47244 297.162 1.16091 297.513 0.913333 297.796C0.435213 298.363 -0.463477 299.401 0.289713 300.528C0.470713 300.8 0.699473 300.992 0.959473 301.121C0.821503 302.077 0.905633 303.066 1.37906 303.961C1.80324 304.766 2.53437 305.306 4.50414 306.268C7.51813 307.741 9.94718 308.458 10.4296 308.594C13.5559 309.48 15.1236 309.925 16.8041 309.861C20.3801 309.718 22.9779 308.609 24.5249 306.563C24.6029 306.463 24.6751 306.361 24.7442 306.259C25.8285 304.651 25.946 302.969 26.1333 300.291C26.1688 299.774 26.1582 299.178 26.1129 298.418C29.0452 297.737 31.9836 297.504 34.8759 297.769C41.1367 298.343 45.5856 301.009 47.7223 302.291C53.0436 305.48 57.8413 308.847 62.4936 312.348L61.9328 312.674C60.2768 313.616 58.9042 314.308 57.5615 313.956C56.8407 313.757 56.0148 313.24 55.0573 312.637C53.9613 311.945 52.7196 311.158 51.1083 310.497C49.6517 309.874 48.5163 309.943 47.7348 310.65C47.4687 310.89 47.3053 311.156 47.2024 311.419C46.7372 311.272 46.1907 311.108 45.5572 311.002C44.2122 310.776 43.1476 310.914 42.3558 311.019C39.1706 311.435 37.4858 312.41 37.3474 313.924C37.2898 314.564 37.5245 315.066 37.8481 315.454C37.2243 315.652 36.5024 315.932 35.7612 316.372C33.3815 317.789 32.3473 319.164 32.6 320.566C32.9515 322.525 35.3269 322.937 38.0721 323.414C39.2928 323.63 42.5395 324.185 42.7222 324.872C42.7437 324.957 42.7551 325.213 42.7641 325.441C42.7904 326.063 42.8305 327.002 43.1553 328.398C43.337 329.181 43.6107 330.363 44.7612 330.828C45.8514 331.226 46.7493 330.653 47.457 330.157C47.6904 329.993 47.9674 329.798 48.3098 329.584C49.0902 329.098 49.5368 328.934 49.9694 328.775C50.5324 328.567 51.1168 328.352 51.9953 327.679C52.0663 327.623 52.1326 327.572 52.1974 327.52C52.3884 327.885 52.683 328.244 53.1536 328.486C54.8946 329.408 56.9021 327.596 57.6764 326.781C59.0608 325.317 59.5131 323.804 59.8773 322.587C59.9694 322.28 60.0594 321.979 60.1648 321.682C60.8268 319.82 62.2087 318.097 64.2738 316.56L64.7202 316.228L65.1469 314.367C67.9501 316.53 70.7257 318.737 73.552 320.991C76.6803 323.487 79.8928 326.048 83.3078 328.676C87.836 332.159 93.4695 336.495 101.315 341.621C109.149 346.739 117.28 351.417 125.485 355.528C132.792 359.189 138.645 361.711 142.661 363.33C130.959 364.113 114.772 365.042 107.457 365.174C104.612 365.225 101.681 365.181 99.5919 363.213C97.5805 361.318 96.5917 357.868 93.6653 354.266C93.3235 353.846 92.3572 352.687 91.502 352.892C90.7948 353.061 90.8077 354.008 90.1498 354.176C89.2674 354.401 88.5282 352.88 86.702 351.449C85.4143 350.44 84.2408 349.989 83.2316 349.601C82.9274 349.484 78.3675 347.764 77.5302 349.015C76.9011 349.955 78.9177 351.758 78.319 352.553C77.7223 353.345 75.5126 351.831 72.1781 351.956C71.5768 351.979 67.7874 352.121 67.2993 353.59C66.374 356.374 78.1227 361.475 77.1018 365.714C76.8777 366.644 76.0149 367.631 75.22 370.503C74.9038 371.645 74.8201 372.284 75.1636 372.7C75.651 373.29 76.573 372.914 78.6791 372.79C81.8376 372.604 81.9825 373.317 84.3918 372.937C86.1803 372.654 87.0397 372.113 87.4791 372.576C88.1008 373.232 86.7814 374.74 87.4001 375.652C88.0315 376.583 90.255 376.265 91.7945 375.765C94.6833 374.826 95.9991 372.971 97.6198 371.517C99.3812 369.937 102.326 368.091 107.4 367.371L143.316 363.592C145.415 364.429 146.963 365.001 147.864 365.334C148.344 365.511 148.652 365.621 148.779 365.679L149.255 364.764L149.788 365.485C149.623 365.25 149.441 364.99 149.267 364.741L149.469 364.351L150.845 363.741C150.66 363.32 150.457 363.136 149.908 362.899L152.669 362.608C151.834 362.676 150.829 362.753 149.755 362.832C149.529 362.741 149.251 362.638 148.904 362.51C148.5 362.361 147.952 362.158 147.295 361.91C136.402 346.205 113.998 312.929 105.658 299.309C103.048 295.047 100.506 290.57 101.626 285.655C102.704 280.923 107.048 276.355 109.897 268.718C110.23 267.826 111.125 265.331 110.053 264.218C109.167 263.298 107.744 264.161 106.905 263.314C105.778 262.179 107.423 259.705 107.964 255.666C108.346 252.818 107.984 250.64 107.673 248.767C107.58 248.202 106.126 239.766 103.486 239.612C101.502 239.497 100.567 244.155 98.8304 243.956C97.1 243.757 97.4262 239.063 94.2686 234.126Z" fill="#2E2E2E"/>
<path d="M461.334 430.248L140.581 385.915C129.845 384.432 120.985 376.74 118.007 366.319L44.3383 108.479C41.8421 99.7403 43.7056 90.6913 49.4513 83.6504C55.1969 76.6094 63.6859 72.9707 72.7506 73.6625L395.909 98.421C407.601 99.3165 417.415 107.549 420.333 118.906L491.595 396.32C493.868 405.173 491.595 414.531 485.511 421.351C480.272 427.226 472.843 430.507 465.099 430.507C463.85 430.507 462.592 430.421 461.334 430.248Z" fill="#E6E6E6"/>
<path d="M380.224 372.565L278.489 358.504C275.084 358.034 272.273 355.594 271.329 352.289L247.963 270.508C247.171 267.736 247.762 264.866 249.584 262.633C251.407 260.4 254.099 259.245 256.974 259.465L359.473 267.318C363.181 267.602 366.294 270.213 367.219 273.815L389.822 361.804C390.543 364.612 389.822 367.58 387.892 369.744C386.231 371.607 383.874 372.647 381.418 372.647C381.022 372.647 380.623 372.62 380.224 372.565Z" fill="#2E2E2E"/>
<path d="M371.122 145.673L182.266 128.289C177.505 127.851 173.799 125.663 174.006 123.411C174.214 121.16 178.256 119.686 183.017 120.124L371.873 137.508C376.635 137.947 380.338 140.134 380.131 142.385C379.924 144.636 375.883 146.111 371.122 145.673Z" fill="#FFC298"/>
<path d="M381.42 195.311L192.564 177.927C187.802 177.489 184.097 175.301 184.304 173.05C184.511 170.799 188.554 169.324 193.315 169.763L382.171 187.147C386.932 187.585 390.636 189.772 390.429 192.023C390.222 194.274 386.181 195.749 381.42 195.311Z" fill="#FFC298"/>
<path d="M385.057 238.575L196.201 221.191C191.44 220.753 187.735 218.565 187.942 216.314C188.149 214.063 192.192 212.588 196.953 213.027L385.809 230.411C390.57 230.849 394.274 233.036 394.067 235.287C393.86 237.538 389.819 239.013 385.057 238.575Z" fill="#FFC298"/>
<path d="M271.261 217.677C276.002 212.513 282.509 210.772 285.795 213.79C289.081 216.807 287.902 223.438 283.159 228.604C281.293 230.694 278.954 232.306 276.337 233.306L255.975 254.935L246.029 245.163L267.158 224.879C267.931 222.185 269.338 219.716 271.261 217.677Z" fill="#FFB6B6"/>
<path d="M155.179 222.49C155.179 222.49 167.077 211.608 181.315 221.109C195.553 230.611 228.709 254.915 228.709 254.915L251.941 226.101L270.248 242.694C270.248 242.694 237.956 299.575 217.092 287.056C196.229 274.538 149.652 238.801 151.767 231.407C153.882 224.013 155.179 222.49 155.179 222.49Z" fill="#ED7D31"/>
<path d="M243.28 487.954L224.323 523.278L208.71 504.383L226.67 480.114L243.28 487.954Z" fill="#FFB6B6"/>
<path d="M231.021 518.395L223 561.734C223 561.734 217.616 576.764 208.963 561.497C200.309 546.23 184.64 514.644 193.648 508.855C202.657 503.066 213.536 498.389 213.536 498.389L231.021 518.395Z" fill="#2F2E41"/>
<path d="M254.467 526.423L274.467 562.423L249.467 565.423L238.467 536.423L254.467 526.423Z" fill="#FFB6B6"/>
<path d="M148.467 200.423C148.467 200.423 146.467 220.423 143.467 222.423C140.467 224.423 178.482 222.423 178.482 222.423L167.467 200.423H148.467Z" fill="#FFB6B6"/>
<path d="M189.459 228.438L175.467 217.423H141.254L118.467 236.423L132.967 303.923L125.967 336.923L214.967 339.923L198.967 309.923C198.967 309.923 217.967 289.923 211.967 276.923C205.967 263.923 189.459 228.438 189.459 228.438Z" fill="#ED7D31"/>
<path d="M205.967 331.923L218.967 338.923C218.967 338.923 288.967 404.923 282.967 424.923C276.967 444.923 236.967 501.923 236.967 501.923L217.967 491.923L245.967 430.923L192.467 377.423L221.186 428.048L261.967 534.923L237.967 544.923L175.967 419.923C175.967 419.923 124.967 384.923 121.967 362.923C118.967 340.923 125.967 336.923 125.967 336.923L205.967 331.923Z" fill="#2F2E41"/>
<path d="M273.967 553.923L306.967 584.923C306.967 584.923 316.967 597.923 298.967 596.923C280.967 595.923 244.967 591.923 244.967 580.923C244.967 569.923 246.967 557.923 246.967 557.923L273.967 553.923Z" fill="#2F2E41"/>
<path d="M158.467 205.423C171.169 205.423 181.467 195.125 181.467 182.423C181.467 169.72 171.169 159.423 158.467 159.423C145.764 159.423 135.467 169.72 135.467 182.423C135.467 195.125 145.764 205.423 158.467 205.423Z" fill="#FFB6B6"/>
<path d="M258.243 274.196L239.288 331.923C238.783 333.461 237.47 334.596 235.874 334.873L199.625 341.178C196.374 341.743 193.688 338.65 194.703 335.51L213.633 276.999C214.144 275.42 215.503 274.265 217.144 274.015L253.419 268.495C256.649 268.004 259.262 271.092 258.243 274.196Z" fill="#2E2E2E"/>
<path d="M198.855 342.244C197.312 342.244 195.847 341.585 194.808 340.389C193.561 338.952 193.166 337.013 193.751 335.203L212.681 276.691C213.313 274.739 214.965 273.335 216.994 273.027L253.268 267.507C255.129 267.223 256.97 267.913 258.188 269.351C259.404 270.79 259.78 272.718 259.192 274.508L240.237 332.234C239.616 334.128 238.01 335.516 236.046 335.859L199.795 342.163C199.481 342.218 199.166 342.244 198.855 342.244ZM254.087 269.444C253.916 269.444 253.742 269.457 253.569 269.483L217.294 275.004C216.019 275.197 214.981 276.08 214.585 277.307L195.704 335.666C195.357 336.737 195.47 337.94 196.136 338.848C196.914 339.909 198.179 340.41 199.453 340.192L213.999 337.663C228.588 335.126 240.59 324.751 245.209 310.681L257.256 273.993C257.56 273.069 257.522 272.039 257.043 271.193C256.412 270.079 255.288 269.444 254.087 269.444Z" fill="#3F3D56"/>
<path d="M202.907 319.167C209.912 319.426 215.457 323.251 215.291 327.71C215.125 332.168 209.312 335.57 202.305 335.31C199.504 335.244 196.759 334.509 194.301 333.165L164.633 331.692L165.621 317.784L194.764 320.713C197.316 319.555 200.108 319.025 202.907 319.167Z" fill="#FFB6B6"/>
<path d="M123.967 233.923C123.967 233.923 139.967 235.923 141.967 252.923C143.967 269.923 146.967 310.923 146.967 310.923L183.967 309.923L183.207 334.619C183.207 334.619 118.967 346.923 114.967 322.923C110.967 298.923 107.967 240.293 114.967 237.108C121.967 233.923 123.967 233.923 123.967 233.923Z" fill="#ED7D31"/>
<path d="M331.737 73.4144L323.507 69.5158C326.882 74.2266 329.791 81.5839 331.348 87.4383C333.985 81.9849 338.235 75.3122 342.442 71.3264L333.744 73.564C339.104 47.2961 359.263 28.4383 382.348 28.4383L382.675 27.4895C358.562 27.4895 337.209 46.0859 331.737 73.4144Z" fill="#3F3D56"/>
<path d="M369.616 113.438H317.616C315.411 113.438 313.616 111.644 313.616 109.438C313.616 107.233 315.411 105.438 317.616 105.438H369.616C371.822 105.438 373.616 107.233 373.616 109.438C373.616 111.644 371.822 113.438 369.616 113.438Z" fill="#ED7D31"/>
<path d="M251.407 283.12L217.307 285.994C216.448 286.066 215.689 285.426 215.617 284.566C215.544 283.706 216.185 282.948 217.045 282.876L251.145 280.002C252.004 279.93 252.762 280.57 252.835 281.43C252.907 282.29 252.267 283.048 251.407 283.12Z" fill="white"/>
<path d="M248.407 293.12L214.307 295.994C213.448 296.066 212.689 295.426 212.617 294.566C212.544 293.706 213.185 292.948 214.045 292.876L248.145 290.002C249.004 289.93 249.762 290.57 249.835 291.43C249.907 292.29 249.267 293.048 248.407 293.12Z" fill="white"/>
<path d="M245.407 303.12L211.307 305.994C210.448 306.066 209.689 305.426 209.617 304.566C209.544 303.706 210.185 302.948 211.045 302.876L245.145 300.002C246.004 299.93 246.762 300.57 246.835 301.43C246.907 302.29 246.267 303.048 245.407 303.12Z" fill="white"/>
<path d="M152.311 190.692L168.402 172.217L165.72 164.425L174.357 172.633L178.816 171.422C178.816 171.422 178.777 155.6 166.144 154.886C153.511 154.171 144.449 155.502 144.449 155.502C144.449 155.502 126.385 161.162 125.679 165.501C124.973 169.839 114.853 175.603 114.853 175.603C114.853 175.603 106.073 182.135 110.177 193.082C114.282 204.029 123.648 217.694 117.165 224.355C110.681 231.017 101.52 236.144 105.984 238.701C110.447 241.258 118.5 229.27 125.833 234.063C133.166 238.856 145.557 258.107 157.18 248.164C168.803 238.222 170.953 226.707 170.953 226.707L152.403 208.375C152.403 208.375 141.165 189.206 152.311 190.692Z" fill="#2F2E41"/>
<path d="M408.026 4.62193H357.479C356.205 4.62193 355.168 3.58504 355.168 2.31072C355.168 1.0364 356.205 0 357.479 0H408.026C409.3 0 410.336 1.03641 410.336 2.31073C410.336 3.58505 409.3 4.62193 408.026 4.62193Z" fill="#3F3D56"/>
<path d="M435.149 29.2784H330.355C329.081 29.2784 328.044 28.2415 328.044 26.9672C328.044 25.6929 329.081 24.6565 330.355 24.6565H435.149C436.423 24.6565 437.46 25.6929 437.46 26.9672C437.46 28.2415 436.423 29.2784 435.149 29.2784Z" fill="#3F3D56"/>
</g>
<defs>
<clipPath id="clip0_414_6">
<rect width="492.459" height="596.977" fill="white"/>
</clipPath>
</defs>
</svg>
